<svg width="65" height="63" viewBox="0 0 65 63" fill="none" xmlns="http://www.w3.org/2000/svg">
<path d="M11.5054 31.68C11.5054 20.0401 20.9438 10.6048 32.5877 10.6048C44.2316 10.6048 53.67 20.0401 53.67 31.68C53.67 38.3078 50.6083 44.2185 45.8252 48.0836L59.5469 48.3368C62.546 43.497 64.278 37.7902 64.278 31.68C64.278 14.1831 50.0905 0 32.5877 0C15.0849 0 0.896973 14.1831 0.896973 31.68C0.896973 46.2418 10.7254 58.5069 24.1109 62.2129L24.4493 51.1286C16.8466 47.9447 11.5054 40.4364 11.5054 31.68Z" fill="#EE5834"/>
<path d="M13.4935 32.1395C13.4935 32.1395 14.7688 24.7432 16.6829 23.2129H47.1701C47.1701 23.2129 50.4873 26.1458 50.3595 32.2672H36.5818V61.7245H27.2689V32.5226L13.4935 32.1395Z" fill="#EE5834"/>
</svg>
